PathFileType  4	(X/Y/Z) C:\Users\antoi\Documents\MyRepositories\mobilecap\ResultsAnalysis
DataRate	CameraRate	NumFrames	NumMarkers	Units	OrigDataRate	OrigDataStartFrame	OrigNumFrames
100.0	100.0	6	51	mm	100.0	535	1424
Frame#	Time	r_knee			r_shank_antsup			r_ankle			r_calc			r_5meta			r_toe			L_knee			L_shank_antsup			L_ankle			L_calc			L_5meta			L_toe			r_sh2			r_sh3			r_sh4			L_sh2			L_sh3			r_thigh1			r_thigh2			r_thigh3			r_thigh4			r_thigh5			L_thigh1			L_thigh2			L_thigh3			L_thigh4			r.ASIS			r.PSIS			L.ASIS			L.PSIS			C7			R_Shoulder			L_Shoulder			R_Sternum			L_Sternum			R_humerus			R_elbow_med			R_elbow_lat			R_forearm			R_wrist_radius			R_wrist_ulna			L_humerus			L_elbow_med			L_elbow_lat			L_forearm			L_wrist_radius			L_wrist_ulna			R_HJC			L_HJC			R_HJC_reg			L_HJC_reg			
		X1	Y1	Z1	X2	Y2	Z2	X3	Y3	Z3	X4	Y4	Z4	X5	Y5	Z5	X6	Y6	Z6	X7	Y7	Z7	X8	Y8	Z8	X9	Y9	Z9	X10	Y10	Z10	X11	Y11	Z11	X12	Y12	Z12	X13	Y13	Z13	X14	Y14	Z14	X15	Y15	Z15	X16	Y16	Z16	X17	Y17	Z17	X18	Y18	Z18	X19	Y19	Z19	X20	Y20	Z20	X21	Y21	Z21	X22	Y22	Z22	X23	Y23	Z23	X24	Y24	Z24	X25	Y25	Z25	X26	Y26	Z26	X27	Y27	Z27	X28	Y28	Z28	X29	Y29	Z29	X30	Y30	Z30	X31	Y31	Z31	X32	Y32	Z32	X33	Y33	Z33	X34	Y34	Z34	X35	Y35	Z35	X36	Y36	Z36	X37	Y37	Z37	X38	Y38	Z38	X39	Y39	Z39	X40	Y40	Z40	X41	Y41	Z41	X42	Y42	Z42	X43	Y43	Z43	X44	Y44	Z44	X45	Y45	Z45	X46	Y46	Z46	X47	Y47	Z47	X48	Y48	Z48	X49	Y49	Z49	X50	Y50	Z50	X51	Y51	Z51	

535	5.34000000	-202.84226	463.18928	-423.53427	-152.97456	388.87361	-425.25545	-328.28355	96.77364	-428.33153	-397.81976	61.13768	-470.72622	-236.06769	45.63542	-378.46083	-182.70786	71.88005	-427.80746	-205.96755	459.65310	-920.03749	-165.54101	369.33293	-935.22813	-322.15237	97.91186	-905.24164	-391.24688	62.15345	-860.33894	-222.81230	42.70432	-957.59912	-177.30260	65.90327	-906.42744	-213.79638	291.01582	-405.80197	-222.88133	426.15400	-406.56454	-278.60117	328.42847	-401.49104	-248.18093	404.68186	-929.80021	-288.18682	288.06603	-935.65184	-453.48822	652.52490	-478.58611	-357.52269	602.50548	-459.15617	-367.44492	542.35482	-426.83698	-509.24323	555.14669	-460.03888	-405.17827	503.28107	-439.17745	-436.90246	601.77168	-912.78174	-308.76706	555.27149	-920.63960	-476.04176	496.95086	-876.12199	-342.10942	455.29096	-896.10418	-427.95385	658.94547	-559.19452	-586.50530	757.08450	-632.88003	-428.29724	650.12412	-805.16448	-592.01525	764.20174	-724.39634	-377.83567	1092.18389	-693.22851	-284.84384	1064.33787	-534.15725	-298.00380	1059.27512	-854.31554	-253.21840	1013.33596	-670.40164	-250.19745	1010.21208	-713.02070	-278.09576	972.41884	-436.16610	-290.49453	753.80506	-396.26718	-266.51921	802.89927	-334.13644	-156.08256	842.92223	-410.10434	-61.07862	873.53815	-492.35981	-38.45531	847.49291	-482.66691	-278.51841	976.14341	-939.00675	-249.63412	740.39995	-967.54644	-239.43710	797.99704	-1031.19937	-165.63860	846.55640	-968.11300	-54.21019	894.79625	-883.41635	-30.93393	874.09344	-897.70040	-523.71668	608.29586	-577.64067	-527.47985	609.26378	-784.07431	-514.47204	603.68052	-591.98754	-524.20674	616.25578	-753.65085	
536	5.35000000	-203.06618	462.86898	-423.77056	-152.79628	388.68641	-425.54890	-328.20927	96.90516	-428.38942	-397.82716	61.15478	-470.79300	-236.11334	45.71298	-378.62023	-182.70794	71.93647	-427.90753	-206.50585	459.24705	-919.64715	-165.45019	369.18167	-934.91876	-322.13156	97.88033	-905.03467	-391.23505	62.16274	-860.30795	-222.84576	42.74253	-957.45167	-177.28689	65.98229	-906.42549	-213.70613	290.96438	-406.10702	-222.74765	426.02239	-406.94627	-278.43242	328.50225	-401.57167	-248.13735	404.53573	-929.69997	-288.04848	287.85038	-935.41641	-456.58486	647.09353	-479.23955	-360.29187	598.92661	-459.51876	-369.29829	538.94433	-426.44772	-511.11993	549.23669	-459.96822	-406.20632	498.95081	-439.39423	-440.40690	597.41438	-913.13286	-311.08980	553.01079	-920.30273	-477.43895	491.40684	-876.23770	-342.58023	452.14621	-895.83875	-430.70403	652.54529	-559.77697	-589.94890	749.75615	-632.77665	-430.82328	643.03294	-804.22122	-595.25548	756.48382	-724.27958	-380.75459	1084.53982	-693.25014	-287.41610	1057.02599	-534.43508	-300.46698	1051.96312	-854.23214	-256.12050	1005.62365	-670.38895	-253.26360	1002.40379	-713.08074	-279.99406	965.56367	-436.06542	-291.00053	746.57437	-395.98503	-267.16038	796.28216	-333.88271	-157.26614	836.63384	-410.50257	-62.79146	867.33010	-493.21574	-40.01715	841.35239	-483.49366	-280.47870	969.34590	-938.99989	-249.89376	733.27346	-969.43986	-239.34724	792.19923	-1032.07386	-166.24425	840.52367	-967.83245	-55.40521	888.67197	-882.47220	-32.03221	868.12356	-896.68052	-526.16701	601.33663	-577.24818	-529.93885	601.77203	-783.68383	-516.91651	597.29083	-592.30303	-526.24150	609.11337	-753.05363	
537	5.36000000	-203.54404	462.45886	-424.06263	-152.75450	388.58158	-425.73013	-328.18320	96.96948	-428.51862	-397.82196	61.14700	-470.91076	-236.13988	45.75360	-378.78079	-182.68979	71.98276	-428.06141	-207.25292	458.93508	-919.34762	-165.58176	369.16154	-934.78167	-322.15283	97.90754	-904.95558	-391.20794	62.18132	-860.30963	-222.87519	42.78234	-957.33988	-177.28585	66.07035	-906.39473	-213.67857	290.94641	-406.23822	-222.74366	425.85982	-407.32079	-278.34581	328.54674	-401.66849	-248.26280	404.46931	-929.67541	-288.13689	287.67575	-935.20960	-460.02132	642.17393	-479.50719	-363.14805	595.27015	-459.71825	-371.32256	535.73860	-425.50206	-513.08328	543.31442	-460.09720	-407.45433	494.67417	-439.60829	-444.21141	593.25928	-913.75978	-313.49518	550.90011	-920.11898	-478.95414	485.91055	-876.06817	-343.28051	449.45258	-896.15641	-433.49213	646.32533	-560.28034	-593.37777	742.21430	-632.50210	-432.98974	636.97490	-803.71107	-598.49743	748.93337	-724.15650	-383.88318	1077.32860	-693.23759	-290.19515	1049.94135	-534.73259	-303.03846	1044.90661	-854.08631	-259.14163	998.18455	-670.52363	-256.57235	994.89323	-712.85495	-282.09581	958.92460	-436.02984	-291.83025	739.85640	-395.78911	-268.01780	790.01205	-333.68130	-158.63764	830.52143	-410.86830	-64.67152	861.32941	-494.07880	-41.73853	835.31029	-484.47849	-282.65180	962.81632	-939.08063	-251.20354	726.36906	-971.63524	-239.64856	786.48016	-1032.68956	-167.10198	834.60661	-967.55917	-56.85840	882.68626	-881.51182	-33.37973	862.31499	-895.66366	-528.33533	594.24337	-577.29023	-531.89128	594.91466	-783.72842	-519.07543	590.70550	-592.87405	-528.01753	602.44107	-752.97962	
538	5.37000000	-204.24773	462.10073	-424.17816	-152.82507	388.56070	-425.80389	-328.19882	96.93137	-428.67491	-397.80005	61.10219	-470.96936	-236.14138	45.81998	-378.89074	-182.66715	72.06791	-428.18733	-208.09832	458.71627	-919.33365	-165.95336	369.31975	-934.90682	-322.20760	97.92159	-904.87508	-391.19229	62.18705	-860.28183	-222.88194	42.83615	-957.30260	-177.29991	66.10175	-906.24311	-213.70073	290.91756	-406.29494	-222.86849	425.71542	-407.53177	-278.35417	328.37847	-401.94000	-248.60064	404.42740	-929.62088	-288.38465	287.58970	-935.18096	-464.05400	637.86606	-478.91714	-365.78723	591.72135	-459.89080	-373.35347	532.29183	-425.02255	-515.08448	537.58570	-460.12016	-408.78726	490.53247	-439.69017	-447.72161	588.67766	-913.82154	-316.02692	548.79694	-919.92282	-480.42179	480.73071	-876.20073	-344.13934	446.81178	-896.57002	-436.28817	640.42796	-560.54345	-596.58680	734.44459	-632.49803	-435.21435	631.89110	-804.20789	-601.84276	741.50905	-723.98528	-387.17866	1070.42480	-693.25674	-293.17901	1043.08668	-535.05946	-305.77515	1038.02732	-853.80590	-262.34883	991.03089	-670.64475	-259.68763	987.67303	-712.84312	-284.40879	952.50239	-436.17798	-293.11966	733.71849	-395.46593	-269.16028	784.12864	-333.44135	-160.24084	824.61902	-411.18334	-66.71905	855.46426	-494.92398	-43.64429	829.52309	-485.37895	-284.95245	956.51611	-939.19796	-252.17646	720.72814	-972.38159	-240.32541	780.78273	-1033.08815	-168.16486	828.89020	-967.40177	-58.55199	876.86383	-880.55107	-34.92716	856.66431	-894.69562	-530.17708	587.13708	-577.84671	-533.59291	588.59646	-784.28356	-520.86688	583.73201	-593.37170	-530.06993	596.10119	-753.54982	
539	5.38000000	-205.06396	461.92953	-424.04479	-152.99549	388.60568	-425.80092	-328.20611	96.90985	-428.77652	-397.78453	61.07044	-470.97667	-236.13357	45.90899	-378.95144	-182.65935	72.16832	-428.26590	-209.04499	458.51317	-919.52969	-166.52818	369.59623	-935.23467	-322.26692	97.90988	-904.78431	-391.22687	62.19122	-860.18699	-222.88472	42.88611	-957.26443	-177.31458	66.08822	-906.03486	-213.74246	290.88986	-406.37520	-223.07708	425.62713	-407.52427	-278.55293	327.99525	-402.17932	-249.19524	404.37290	-929.60470	-288.70587	287.54175	-935.33376	-467.94921	633.31596	-478.45636	-368.34056	588.34639	-460.00631	-375.30392	528.63520	-425.34301	-517.07719	531.97984	-460.07786	-410.08677	486.48452	-439.78667	-451.00709	584.02075	-913.85796	-318.68543	546.67238	-919.69625	-481.85387	475.85095	-876.66995	-345.04256	444.15041	-896.87771	-439.09707	634.83341	-560.74456	-599.79903	726.88421	-632.81396	-437.88527	626.74417	-805.01881	-605.39128	734.15840	-723.87979	-390.64004	1063.68819	-693.29873	-296.35439	1036.46928	-535.33849	-308.75426	1031.39744	-853.52804	-265.79323	984.19227	-670.60635	-262.82434	980.72820	-713.13028	-286.84526	946.33999	-436.42527	-294.67169	727.85523	-395.11824	-270.56866	778.52431	-333.08189	-162.09698	818.91326	-411.50249	-68.99848	849.76075	-495.73489	-45.80976	823.99640	-486.06817	-287.38093	950.38683	-939.10045	-252.58458	715.85182	-971.98955	-241.36699	775.18257	-1033.26832	-169.52588	823.41216	-967.31794	-60.48122	871.26298	-879.66849	-36.72133	851.17474	-893.76669	-532.08139	580.35959	-578.36887	-535.63602	582.24183	-784.80100	-522.71287	576.90251	-593.61112	-532.57051	589.72251	-754.10918	
540	5.39000000	-205.93457	461.81571	-423.92381	-153.29511	388.69283	-425.71842	-328.19519	96.89771	-428.89979	-397.78756	61.07877	-470.98491	-236.12878	45.96290	-378.97807	-182.66072	72.23697	-428.30026	-210.22640	458.29706	-919.79800	-167.19944	369.72442	-935.45128	-322.31729	97.89404	-904.70593	-391.29118	62.19703	-860.04536	-222.89903	42.91124	-957.17581	-177.32367	66.11986	-905.94251	-213.79174	290.86474	-406.48487	-223.31724	425.60598	-407.30203	-278.89993	327.59375	-402.24367	-249.98436	404.34474	-929.81838	-289.12195	287.45564	-935.48151	-471.11957	627.99123	-479.05718	-371.16930	585.01440	-459.95527	-377.19532	525.10651	-425.76490	-519.00402	526.30221	-460.07071	-411.33128	482.46419	-440.00207	-454.36112	579.62387	-914.08687	-321.41138	544.67456	-919.73892	-483.39992	470.96191	-876.90664	-345.95780	441.62943	-897.26816	-441.90549	629.48322	-560.98956	-603.27113	719.65287	-633.13530	-440.60288	621.47249	-805.36384	-609.05434	726.91299	-723.85893	-394.35761	1057.19656	-693.29427	-299.71769	1030.17981	-535.52512	-312.04906	1025.13613	-853.32466	-269.49337	977.70086	-670.46181	-266.57090	974.12369	-713.25742	-289.40432	940.46441	-436.70189	-296.37446	722.08498	-394.67640	-272.20118	773.05372	-332.66918	-164.19828	813.40099	-411.84141	-71.54741	844.26649	-496.55824	-48.23721	818.56396	-486.86183	-289.98056	944.50326	-938.83532	-253.37445	710.86623	-971.61604	-242.77433	769.88309	-1033.37128	-171.25015	818.11270	-967.16842	-62.66752	865.91574	-878.81117	-38.82636	845.88230	-892.80046	-534.12547	573.92269	-578.63140	-537.78061	575.85971	-785.06090	-524.71122	570.55969	-593.80328	-534.94396	583.40613	-754.34175	
